<mxfile host="Electron" agent="Mozilla/5.0 (Windows NT 10.0; Win64; x64) AppleWebKit/537.36 (KHTML, like Gecko) draw.io/24.7.8 Chrome/128.0.6613.36 Electron/32.0.1 Safari/537.36" version="24.7.8">
  <diagram name="Page-1" id="Pu3ljJkV98gXxPGhZFqd">
    <mxGraphModel dx="1352" dy="783" grid="1" gridSize="10" guides="1" tooltips="1" connect="1" arrows="1" fold="1" page="1" pageScale="1" pageWidth="827" pageHeight="1169" math="0" shadow="0">
      <root>
        <mxCell id="0" />
        <mxCell id="1" parent="0" />
        <mxCell id="oKlWoWR9NMrhLDIKORoj-35" value="" style="group" vertex="1" connectable="0" parent="1">
          <mxGeometry x="950" y="30" width="420" height="280" as="geometry" />
        </mxCell>
        <mxCell id="oKlWoWR9NMrhLDIKORoj-34" value="" style="rounded=0;whiteSpace=wrap;html=1;fillColor=none;" vertex="1" parent="oKlWoWR9NMrhLDIKORoj-35">
          <mxGeometry width="420" height="280" as="geometry" />
        </mxCell>
        <mxCell id="oKlWoWR9NMrhLDIKORoj-10" value="Objetos" style="rhombus;whiteSpace=wrap;html=1;" vertex="1" parent="oKlWoWR9NMrhLDIKORoj-35">
          <mxGeometry x="291" y="190" width="80" height="80" as="geometry" />
        </mxCell>
        <mxCell id="oKlWoWR9NMrhLDIKORoj-31" style="edgeStyle=orthogonalEdgeStyle;rounded=0;orthogonalLoop=1;jettySize=auto;html=1;entryX=0;entryY=0.5;entryDx=0;entryDy=0;startArrow=classic;startFill=1;" edge="1" parent="oKlWoWR9NMrhLDIKORoj-35" source="oKlWoWR9NMrhLDIKORoj-18" target="oKlWoWR9NMrhLDIKORoj-19">
          <mxGeometry relative="1" as="geometry" />
        </mxCell>
        <mxCell id="oKlWoWR9NMrhLDIKORoj-18" value="Bando&lt;div&gt;Dados&lt;/div&gt;" style="strokeWidth=2;html=1;shape=mxgraph.flowchart.database;whiteSpace=wrap;fillColor=#76608a;fontColor=#ffffff;strokeColor=#432D57;" vertex="1" parent="oKlWoWR9NMrhLDIKORoj-35">
          <mxGeometry x="70" y="200" width="60" height="60" as="geometry" />
        </mxCell>
        <mxCell id="oKlWoWR9NMrhLDIKORoj-30" style="edgeStyle=orthogonalEdgeStyle;rounded=0;orthogonalLoop=1;jettySize=auto;html=1;entryX=0;entryY=0.5;entryDx=0;entryDy=0;endArrow=classic;endFill=1;startArrow=classic;startFill=1;" edge="1" parent="oKlWoWR9NMrhLDIKORoj-35" source="oKlWoWR9NMrhLDIKORoj-19" target="oKlWoWR9NMrhLDIKORoj-10">
          <mxGeometry relative="1" as="geometry" />
        </mxCell>
        <mxCell id="oKlWoWR9NMrhLDIKORoj-19" value="Gerenciador" style="rounded=1;whiteSpace=wrap;html=1;absoluteArcSize=1;arcSize=14;strokeWidth=2;fillColor=#e3c800;fontColor=#000000;strokeColor=#B09500;" vertex="1" parent="oKlWoWR9NMrhLDIKORoj-35">
          <mxGeometry x="170" y="210" width="80" height="40" as="geometry" />
        </mxCell>
        <mxCell id="oKlWoWR9NMrhLDIKORoj-32" style="edgeStyle=orthogonalEdgeStyle;rounded=0;orthogonalLoop=1;jettySize=auto;html=1;entryX=0;entryY=0.5;entryDx=0;entryDy=0;" edge="1" parent="oKlWoWR9NMrhLDIKORoj-35" source="oKlWoWR9NMrhLDIKORoj-20" target="oKlWoWR9NMrhLDIKORoj-21">
          <mxGeometry relative="1" as="geometry" />
        </mxCell>
        <mxCell id="oKlWoWR9NMrhLDIKORoj-20" value="&lt;div&gt;&lt;br&gt;&lt;/div&gt;Comando" style="html=1;strokeWidth=2;shape=manualInput;whiteSpace=wrap;rounded=1;size=26;arcSize=11;fillColor=#6d8764;fontColor=#ffffff;strokeColor=#3A5431;" vertex="1" parent="oKlWoWR9NMrhLDIKORoj-35">
          <mxGeometry x="10" y="90" width="120" height="40" as="geometry" />
        </mxCell>
        <mxCell id="oKlWoWR9NMrhLDIKORoj-29" style="edgeStyle=orthogonalEdgeStyle;rounded=0;orthogonalLoop=1;jettySize=auto;html=1;entryX=0.5;entryY=0;entryDx=0;entryDy=0;startArrow=classic;startFill=1;" edge="1" parent="oKlWoWR9NMrhLDIKORoj-35" source="oKlWoWR9NMrhLDIKORoj-21" target="oKlWoWR9NMrhLDIKORoj-19">
          <mxGeometry relative="1" as="geometry" />
        </mxCell>
        <mxCell id="oKlWoWR9NMrhLDIKORoj-21" value="Interface" style="rounded=1;whiteSpace=wrap;html=1;absoluteArcSize=1;arcSize=14;strokeWidth=2;fillColor=#6a00ff;fontColor=#ffffff;strokeColor=#3700CC;" vertex="1" parent="oKlWoWR9NMrhLDIKORoj-35">
          <mxGeometry x="170" y="90" width="80" height="40" as="geometry" />
        </mxCell>
        <mxCell id="oKlWoWR9NMrhLDIKORoj-22" value="Exibição" style="strokeWidth=2;html=1;shape=mxgraph.flowchart.display;whiteSpace=wrap;fillColor=#647687;fontColor=#ffffff;strokeColor=#314354;" vertex="1" parent="oKlWoWR9NMrhLDIKORoj-35">
          <mxGeometry x="291" y="90" width="119" height="40" as="geometry" />
        </mxCell>
        <mxCell id="oKlWoWR9NMrhLDIKORoj-25" style="edgeStyle=orthogonalEdgeStyle;rounded=0;orthogonalLoop=1;jettySize=auto;html=1;entryX=0.5;entryY=0;entryDx=0;entryDy=0;" edge="1" parent="oKlWoWR9NMrhLDIKORoj-35" source="oKlWoWR9NMrhLDIKORoj-24" target="oKlWoWR9NMrhLDIKORoj-21">
          <mxGeometry relative="1" as="geometry" />
        </mxCell>
        <mxCell id="oKlWoWR9NMrhLDIKORoj-24" value="Início" style="strokeWidth=2;html=1;shape=mxgraph.flowchart.start_1;whiteSpace=wrap;" vertex="1" parent="oKlWoWR9NMrhLDIKORoj-35">
          <mxGeometry x="160" y="10" width="100" height="40" as="geometry" />
        </mxCell>
        <mxCell id="oKlWoWR9NMrhLDIKORoj-28" style="edgeStyle=orthogonalEdgeStyle;rounded=0;orthogonalLoop=1;jettySize=auto;html=1;entryX=0;entryY=0.5;entryDx=0;entryDy=0;entryPerimeter=0;" edge="1" parent="oKlWoWR9NMrhLDIKORoj-35" source="oKlWoWR9NMrhLDIKORoj-21" target="oKlWoWR9NMrhLDIKORoj-22">
          <mxGeometry relative="1" as="geometry" />
        </mxCell>
        <mxCell id="oKlWoWR9NMrhLDIKORoj-37" value="" style="group" vertex="1" connectable="0" parent="1">
          <mxGeometry x="30" y="30" width="860" height="700" as="geometry" />
        </mxCell>
        <mxCell id="oKlWoWR9NMrhLDIKORoj-36" value="" style="rounded=0;whiteSpace=wrap;html=1;fillColor=none;" vertex="1" parent="oKlWoWR9NMrhLDIKORoj-37">
          <mxGeometry width="860" height="700" as="geometry" />
        </mxCell>
        <mxCell id="dhuc0LIk_MqrpKOAlrgo-14" style="edgeStyle=orthogonalEdgeStyle;rounded=0;orthogonalLoop=1;jettySize=auto;html=1;entryX=0;entryY=0.5;entryDx=0;entryDy=0;fillColor=#a20025;strokeColor=#6F0000;" parent="oKlWoWR9NMrhLDIKORoj-37" source="dhuc0LIk_MqrpKOAlrgo-2" target="dhuc0LIk_MqrpKOAlrgo-13" edge="1">
          <mxGeometry relative="1" as="geometry" />
        </mxCell>
        <mxCell id="dhuc0LIk_MqrpKOAlrgo-16" style="edgeStyle=orthogonalEdgeStyle;rounded=0;orthogonalLoop=1;jettySize=auto;html=1;entryX=0;entryY=0.5;entryDx=0;entryDy=0;fillColor=#a20025;strokeColor=#6F0000;" parent="oKlWoWR9NMrhLDIKORoj-37" source="dhuc0LIk_MqrpKOAlrgo-2" target="dhuc0LIk_MqrpKOAlrgo-15" edge="1">
          <mxGeometry relative="1" as="geometry" />
        </mxCell>
        <mxCell id="dhuc0LIk_MqrpKOAlrgo-2" value="Instituição" style="rounded=0;whiteSpace=wrap;html=1;fillColor=#a20025;fontColor=#ffffff;strokeColor=#6F0000;" parent="oKlWoWR9NMrhLDIKORoj-37" vertex="1">
          <mxGeometry x="650" y="490" width="120" height="40" as="geometry" />
        </mxCell>
        <mxCell id="dhuc0LIk_MqrpKOAlrgo-13" value="Nome" style="rounded=0;whiteSpace=wrap;html=1;fillColor=#a20025;fontColor=#ffffff;strokeColor=#6F0000;" parent="oKlWoWR9NMrhLDIKORoj-37" vertex="1">
          <mxGeometry x="730" y="650" width="120" height="40" as="geometry" />
        </mxCell>
        <mxCell id="oKlWoWR9NMrhLDIKORoj-9" style="edgeStyle=orthogonalEdgeStyle;rounded=0;orthogonalLoop=1;jettySize=auto;html=1;entryX=1;entryY=0.5;entryDx=0;entryDy=0;exitX=0.5;exitY=0;exitDx=0;exitDy=0;dashed=1;endArrow=none;endFill=0;" edge="1" parent="oKlWoWR9NMrhLDIKORoj-37" source="dhuc0LIk_MqrpKOAlrgo-15" target="y1_kNNUqAUPiW4P1-z1A-14">
          <mxGeometry relative="1" as="geometry" />
        </mxCell>
        <mxCell id="dhuc0LIk_MqrpKOAlrgo-15" value="Identificador&amp;nbsp;&lt;div&gt;(CNPJ)&lt;/div&gt;" style="rounded=0;whiteSpace=wrap;html=1;dashed=1;fillColor=#a20025;fontColor=#ffffff;strokeColor=#6F0000;" parent="oKlWoWR9NMrhLDIKORoj-37" vertex="1">
          <mxGeometry x="730" y="570" width="120" height="40" as="geometry" />
        </mxCell>
        <mxCell id="GEEebQdDyyAj3zyegDFC-12" style="edgeStyle=orthogonalEdgeStyle;rounded=0;orthogonalLoop=1;jettySize=auto;html=1;entryX=0;entryY=0.5;entryDx=0;entryDy=0;fillColor=#0050ef;strokeColor=#001DBC;" parent="oKlWoWR9NMrhLDIKORoj-37" source="GEEebQdDyyAj3zyegDFC-5" target="GEEebQdDyyAj3zyegDFC-6" edge="1">
          <mxGeometry relative="1" as="geometry" />
        </mxCell>
        <mxCell id="GEEebQdDyyAj3zyegDFC-13" style="edgeStyle=orthogonalEdgeStyle;rounded=0;orthogonalLoop=1;jettySize=auto;html=1;entryX=0;entryY=0.5;entryDx=0;entryDy=0;fillColor=#0050ef;strokeColor=#001DBC;" parent="oKlWoWR9NMrhLDIKORoj-37" source="GEEebQdDyyAj3zyegDFC-5" target="GEEebQdDyyAj3zyegDFC-11" edge="1">
          <mxGeometry relative="1" as="geometry" />
        </mxCell>
        <mxCell id="GEEebQdDyyAj3zyegDFC-5" value="Médico" style="rounded=0;whiteSpace=wrap;html=1;fillColor=#0050ef;fontColor=#ffffff;strokeColor=#001DBC;" parent="oKlWoWR9NMrhLDIKORoj-37" vertex="1">
          <mxGeometry x="450" y="490" width="120" height="40" as="geometry" />
        </mxCell>
        <mxCell id="GEEebQdDyyAj3zyegDFC-6" value="Nome" style="rounded=0;whiteSpace=wrap;html=1;fillColor=#0050ef;fontColor=#ffffff;strokeColor=#001DBC;" parent="oKlWoWR9NMrhLDIKORoj-37" vertex="1">
          <mxGeometry x="530" y="650" width="120" height="40" as="geometry" />
        </mxCell>
        <mxCell id="GEEebQdDyyAj3zyegDFC-19" style="edgeStyle=orthogonalEdgeStyle;rounded=0;orthogonalLoop=1;jettySize=auto;html=1;entryX=0;entryY=0.5;entryDx=0;entryDy=0;fillColor=#008a00;strokeColor=#005700;" parent="oKlWoWR9NMrhLDIKORoj-37" source="GEEebQdDyyAj3zyegDFC-8" target="GEEebQdDyyAj3zyegDFC-9" edge="1">
          <mxGeometry relative="1" as="geometry" />
        </mxCell>
        <mxCell id="GEEebQdDyyAj3zyegDFC-20" style="edgeStyle=orthogonalEdgeStyle;rounded=0;orthogonalLoop=1;jettySize=auto;html=1;entryX=0;entryY=0.5;entryDx=0;entryDy=0;fillColor=#008a00;strokeColor=#005700;" parent="oKlWoWR9NMrhLDIKORoj-37" source="GEEebQdDyyAj3zyegDFC-8" target="GEEebQdDyyAj3zyegDFC-10" edge="1">
          <mxGeometry relative="1" as="geometry" />
        </mxCell>
        <mxCell id="GEEebQdDyyAj3zyegDFC-8" value="Paciente" style="rounded=0;whiteSpace=wrap;html=1;fillColor=#008a00;fontColor=#ffffff;strokeColor=#005700;" parent="oKlWoWR9NMrhLDIKORoj-37" vertex="1">
          <mxGeometry x="250" y="490" width="120" height="40" as="geometry" />
        </mxCell>
        <mxCell id="GEEebQdDyyAj3zyegDFC-9" value="Nome" style="rounded=0;whiteSpace=wrap;html=1;fillColor=#008a00;fontColor=#ffffff;strokeColor=#005700;" parent="oKlWoWR9NMrhLDIKORoj-37" vertex="1">
          <mxGeometry x="330" y="650" width="120" height="40" as="geometry" />
        </mxCell>
        <mxCell id="oKlWoWR9NMrhLDIKORoj-8" style="edgeStyle=orthogonalEdgeStyle;rounded=0;orthogonalLoop=1;jettySize=auto;html=1;entryX=1;entryY=0.5;entryDx=0;entryDy=0;exitX=0.5;exitY=0;exitDx=0;exitDy=0;dashed=1;endArrow=none;endFill=0;" edge="1" parent="oKlWoWR9NMrhLDIKORoj-37" source="GEEebQdDyyAj3zyegDFC-10" target="44a5met547eTB0l7Rw-a-1">
          <mxGeometry relative="1" as="geometry" />
        </mxCell>
        <mxCell id="GEEebQdDyyAj3zyegDFC-10" value="Identificador&lt;div&gt;(CPF)&lt;/div&gt;" style="rounded=0;whiteSpace=wrap;html=1;dashed=1;fillColor=#008a00;fontColor=#ffffff;strokeColor=#005700;" parent="oKlWoWR9NMrhLDIKORoj-37" vertex="1">
          <mxGeometry x="330" y="570" width="120" height="40" as="geometry" />
        </mxCell>
        <mxCell id="oKlWoWR9NMrhLDIKORoj-7" style="edgeStyle=orthogonalEdgeStyle;rounded=0;orthogonalLoop=1;jettySize=auto;html=1;entryX=1;entryY=0.5;entryDx=0;entryDy=0;exitX=0.5;exitY=0;exitDx=0;exitDy=0;dashed=1;endArrow=none;endFill=0;" edge="1" parent="oKlWoWR9NMrhLDIKORoj-37" source="GEEebQdDyyAj3zyegDFC-11" target="44a5met547eTB0l7Rw-a-2">
          <mxGeometry relative="1" as="geometry" />
        </mxCell>
        <mxCell id="GEEebQdDyyAj3zyegDFC-11" value="Identificador&amp;nbsp;&lt;div&gt;(CRM)&lt;/div&gt;" style="rounded=0;whiteSpace=wrap;html=1;dashed=1;fillColor=#0050ef;fontColor=#ffffff;strokeColor=#001DBC;" parent="oKlWoWR9NMrhLDIKORoj-37" vertex="1">
          <mxGeometry x="530" y="570" width="120" height="40" as="geometry" />
        </mxCell>
        <mxCell id="44a5met547eTB0l7Rw-a-5" style="edgeStyle=orthogonalEdgeStyle;rounded=0;orthogonalLoop=1;jettySize=auto;html=1;entryX=0;entryY=0.5;entryDx=0;entryDy=0;" parent="oKlWoWR9NMrhLDIKORoj-37" source="GEEebQdDyyAj3zyegDFC-33" target="44a5met547eTB0l7Rw-a-2" edge="1">
          <mxGeometry relative="1" as="geometry" />
        </mxCell>
        <mxCell id="44a5met547eTB0l7Rw-a-6" style="edgeStyle=orthogonalEdgeStyle;rounded=0;orthogonalLoop=1;jettySize=auto;html=1;entryX=0;entryY=0.5;entryDx=0;entryDy=0;" parent="oKlWoWR9NMrhLDIKORoj-37" source="GEEebQdDyyAj3zyegDFC-33" target="44a5met547eTB0l7Rw-a-1" edge="1">
          <mxGeometry relative="1" as="geometry" />
        </mxCell>
        <mxCell id="44a5met547eTB0l7Rw-a-49" style="edgeStyle=orthogonalEdgeStyle;rounded=0;orthogonalLoop=1;jettySize=auto;html=1;entryX=0;entryY=0.5;entryDx=0;entryDy=0;" parent="oKlWoWR9NMrhLDIKORoj-37" source="GEEebQdDyyAj3zyegDFC-33" target="44a5met547eTB0l7Rw-a-48" edge="1">
          <mxGeometry relative="1" as="geometry" />
        </mxCell>
        <mxCell id="y1_kNNUqAUPiW4P1-z1A-15" style="edgeStyle=orthogonalEdgeStyle;rounded=0;orthogonalLoop=1;jettySize=auto;html=1;entryX=0;entryY=0.5;entryDx=0;entryDy=0;" parent="oKlWoWR9NMrhLDIKORoj-37" source="GEEebQdDyyAj3zyegDFC-33" target="y1_kNNUqAUPiW4P1-z1A-14" edge="1">
          <mxGeometry relative="1" as="geometry" />
        </mxCell>
        <mxCell id="oKlWoWR9NMrhLDIKORoj-2" style="edgeStyle=orthogonalEdgeStyle;rounded=0;orthogonalLoop=1;jettySize=auto;html=1;entryX=0;entryY=0.5;entryDx=0;entryDy=0;" edge="1" parent="oKlWoWR9NMrhLDIKORoj-37" source="GEEebQdDyyAj3zyegDFC-33" target="44a5met547eTB0l7Rw-a-13">
          <mxGeometry relative="1" as="geometry" />
        </mxCell>
        <mxCell id="oKlWoWR9NMrhLDIKORoj-3" style="edgeStyle=orthogonalEdgeStyle;rounded=0;orthogonalLoop=1;jettySize=auto;html=1;entryX=0;entryY=0.5;entryDx=0;entryDy=0;" edge="1" parent="oKlWoWR9NMrhLDIKORoj-37" source="GEEebQdDyyAj3zyegDFC-33" target="44a5met547eTB0l7Rw-a-15">
          <mxGeometry relative="1" as="geometry" />
        </mxCell>
        <mxCell id="oKlWoWR9NMrhLDIKORoj-4" style="edgeStyle=orthogonalEdgeStyle;rounded=0;orthogonalLoop=1;jettySize=auto;html=1;entryX=0;entryY=0.5;entryDx=0;entryDy=0;" edge="1" parent="oKlWoWR9NMrhLDIKORoj-37" source="GEEebQdDyyAj3zyegDFC-33" target="44a5met547eTB0l7Rw-a-14">
          <mxGeometry relative="1" as="geometry" />
        </mxCell>
        <mxCell id="oKlWoWR9NMrhLDIKORoj-5" style="edgeStyle=orthogonalEdgeStyle;rounded=0;orthogonalLoop=1;jettySize=auto;html=1;entryX=0;entryY=0.5;entryDx=0;entryDy=0;" edge="1" parent="oKlWoWR9NMrhLDIKORoj-37" source="GEEebQdDyyAj3zyegDFC-33" target="44a5met547eTB0l7Rw-a-16">
          <mxGeometry relative="1" as="geometry" />
        </mxCell>
        <mxCell id="GEEebQdDyyAj3zyegDFC-33" value="Consulta" style="rounded=0;whiteSpace=wrap;html=1;" parent="oKlWoWR9NMrhLDIKORoj-37" vertex="1">
          <mxGeometry x="10" y="10" width="120" height="40" as="geometry" />
        </mxCell>
        <mxCell id="44a5met547eTB0l7Rw-a-1" value="Paciente" style="rounded=0;whiteSpace=wrap;html=1;dashed=1;fillColor=#008a00;fontColor=#ffffff;strokeColor=#005700;" parent="oKlWoWR9NMrhLDIKORoj-37" vertex="1">
          <mxGeometry x="90" y="330" width="120" height="40" as="geometry" />
        </mxCell>
        <mxCell id="44a5met547eTB0l7Rw-a-2" value="Médico" style="rounded=0;whiteSpace=wrap;html=1;dashed=1;fillColor=#0050ef;fontColor=#ffffff;strokeColor=#001DBC;" parent="oKlWoWR9NMrhLDIKORoj-37" vertex="1">
          <mxGeometry x="90" y="250" width="120" height="40" as="geometry" />
        </mxCell>
        <mxCell id="44a5met547eTB0l7Rw-a-13" value="Sintomas" style="rounded=0;whiteSpace=wrap;html=1;" parent="oKlWoWR9NMrhLDIKORoj-37" vertex="1">
          <mxGeometry x="90" y="410" width="120" height="40" as="geometry" />
        </mxCell>
        <mxCell id="44a5met547eTB0l7Rw-a-14" value="Enfermidade" style="rounded=0;whiteSpace=wrap;html=1;" parent="oKlWoWR9NMrhLDIKORoj-37" vertex="1">
          <mxGeometry x="90" y="570" width="120" height="40" as="geometry" />
        </mxCell>
        <mxCell id="44a5met547eTB0l7Rw-a-15" value="Descrição da Consulta" style="rounded=0;whiteSpace=wrap;html=1;" parent="oKlWoWR9NMrhLDIKORoj-37" vertex="1">
          <mxGeometry x="90" y="490" width="120" height="40" as="geometry" />
        </mxCell>
        <mxCell id="44a5met547eTB0l7Rw-a-16" value="Prescrição" style="rounded=0;whiteSpace=wrap;html=1;" parent="oKlWoWR9NMrhLDIKORoj-37" vertex="1">
          <mxGeometry x="90" y="650" width="120" height="40" as="geometry" />
        </mxCell>
        <mxCell id="44a5met547eTB0l7Rw-a-48" value="Identificador&lt;div&gt;(Número)&lt;/div&gt;" style="rounded=0;whiteSpace=wrap;html=1;dashed=1;" parent="oKlWoWR9NMrhLDIKORoj-37" vertex="1">
          <mxGeometry x="90" y="90" width="120" height="40" as="geometry" />
        </mxCell>
        <mxCell id="y1_kNNUqAUPiW4P1-z1A-14" value="Instituição" style="rounded=0;whiteSpace=wrap;html=1;dashed=1;fillColor=#a20025;fontColor=#ffffff;strokeColor=#6F0000;" parent="oKlWoWR9NMrhLDIKORoj-37" vertex="1">
          <mxGeometry x="90" y="170" width="120" height="40" as="geometry" />
        </mxCell>
      </root>
    </mxGraphModel>
  </diagram>
</mxfile>
